# xmcd
#
# Track frame offsets: 
#        150
#        27670
#        44815
#        67453
#        91498
#        114064
#        136470
#        159559
#        180241
#        203607
#        225100
#        247806
#        269449
#
# Disc length: 3839 seconds
#
# Revision: 3
# Processed by: cddbd v1.5.2PL0 Copyright (c) Steve Scherf et al.
# Submitted via: ExactAudioCopy v1.0b3
#
DISCID=ae0efd0d
DTITLE=Susanne Fröhlich - Familienpackung - CD4_4
DYEAR=2005
DGENRE=Hörbuch
TTITLE0=Tag 5 - 44
TTITLE1=Tag 6 - 45
TTITLE2=Tag 6 - 46
TTITLE3=Tag 6 - 47
TTITLE4=Tag 6 - 48
TTITLE5=Tag 6 - 49
TTITLE6=Tag 6 - 50
TTITLE7=Tag 6 - 51
TTITLE8=Tag 6 - 52
TTITLE9=Tag 7 - 53
TTITLE10=Tag 7 - 54
TTITLE11=Tag 7 - 55
TTITLE12=Tag 7 - 56
EXTD=
EXTT0=
EXTT1=
EXTT2=
EXTT3=
EXTT4=
EXTT5=
EXTT6=
EXTT7=
EXTT8=
EXTT9=
EXTT10=
EXTT11=
EXTT12=
PLAYORDER=
